<svg width="32" height="32" viewBox="0 0 32 32" fill="none" xmlns="http://www.w3.org/2000/svg">
<g clip-path="url(#clip0_3_55)">
<path d="M31.992 32V31.9987H32V20.2627C32 14.5213 30.764 10.0987 24.052 10.0987C20.8253 10.0987 18.66 11.8693 17.776 13.548H17.6827V10.6347H11.3187V31.9987H17.9453V21.42C17.9453 18.6347 18.4733 15.9413 21.9227 15.9413C25.3213 15.9413 25.372 19.12 25.372 21.5987V32H31.992Z" fill="white"/>
<path d="M0.528015 10.636H7.16268V32H0.528015V10.636Z" fill="white"/>
<path d="M3.84267 0C1.72133 0 0 1.72133 0 3.84267C0 5.964 1.72133 7.72133 3.84267 7.72133C5.964 7.72133 7.68533 5.964 7.68533 3.84267C7.684 1.72133 5.96267 0 3.84267 0V0Z" fill="white"/>
</g>
<defs>
<clipPath id="clip0_3_55">
<rect width="32" height="32" fill="white"/>
</clipPath>
</defs>
</svg>
